<mxfile host="app.diagrams.net" modified="2023-05-08T12:51:46.716Z" agent="Mozilla/5.0 (Macintosh; Intel Mac OS X 10_15_7) AppleWebKit/537.36 (KHTML, like Gecko) Chrome/112.0.0.0 Safari/537.36" etag="bg5_XgC2OZWLPEIRUn9Q" version="21.2.9" type="github">
  <diagram name="第 1 页" id="C9V_ELNP94MyuctLn7Ns">
    <mxGraphModel dx="1050" dy="582" grid="1" gridSize="10" guides="1" tooltips="1" connect="1" arrows="1" fold="1" page="1" pageScale="1" pageWidth="827" pageHeight="1169" math="0" shadow="0">
      <root>
        <mxCell id="0" />
        <mxCell id="1" parent="0" />
        <mxCell id="v_UblvZ5VtNm7Xd-BXZG-2" style="edgeStyle=orthogonalEdgeStyle;rounded=0;orthogonalLoop=1;jettySize=auto;html=1;exitX=0.5;exitY=1;exitDx=0;exitDy=0;curved=1;" edge="1" parent="1" source="v_UblvZ5VtNm7Xd-BXZG-10" target="v_UblvZ5VtNm7Xd-BXZG-17">
          <mxGeometry relative="1" as="geometry" />
        </mxCell>
        <mxCell id="v_UblvZ5VtNm7Xd-BXZG-3" style="edgeStyle=orthogonalEdgeStyle;rounded=0;orthogonalLoop=1;jettySize=auto;html=1;exitX=0.5;exitY=1;exitDx=0;exitDy=0;entryX=0.5;entryY=0;entryDx=0;entryDy=0;curved=1;" edge="1" parent="1" source="v_UblvZ5VtNm7Xd-BXZG-10" target="v_UblvZ5VtNm7Xd-BXZG-22">
          <mxGeometry relative="1" as="geometry" />
        </mxCell>
        <mxCell id="v_UblvZ5VtNm7Xd-BXZG-8" style="edgeStyle=orthogonalEdgeStyle;rounded=0;orthogonalLoop=1;jettySize=auto;html=1;exitX=1;exitY=0.5;exitDx=0;exitDy=0;" edge="1" parent="1" source="v_UblvZ5VtNm7Xd-BXZG-10" target="v_UblvZ5VtNm7Xd-BXZG-12">
          <mxGeometry relative="1" as="geometry" />
        </mxCell>
        <mxCell id="v_UblvZ5VtNm7Xd-BXZG-35" style="edgeStyle=orthogonalEdgeStyle;orthogonalLoop=1;jettySize=auto;html=1;exitX=0.5;exitY=1;exitDx=0;exitDy=0;entryX=0.5;entryY=0;entryDx=0;entryDy=0;curved=1;" edge="1" parent="1" source="v_UblvZ5VtNm7Xd-BXZG-10" target="v_UblvZ5VtNm7Xd-BXZG-15">
          <mxGeometry relative="1" as="geometry" />
        </mxCell>
        <mxCell id="v_UblvZ5VtNm7Xd-BXZG-10" value="&lt;font style=&quot;font-size: 12px;&quot;&gt;1.查找数据&lt;br&gt;95%&lt;/font&gt;" style="rounded=1;whiteSpace=wrap;html=1;shadow=0;glass=0;fillColor=#ffcc99;strokeColor=#36393d;" vertex="1" parent="1">
          <mxGeometry x="370" y="90" width="80" height="60" as="geometry" />
        </mxCell>
        <mxCell id="v_UblvZ5VtNm7Xd-BXZG-11" style="edgeStyle=orthogonalEdgeStyle;rounded=0;orthogonalLoop=1;jettySize=auto;html=1;exitX=1;exitY=0.5;exitDx=0;exitDy=0;entryX=0;entryY=0.5;entryDx=0;entryDy=0;" edge="1" parent="1" source="v_UblvZ5VtNm7Xd-BXZG-12" target="v_UblvZ5VtNm7Xd-BXZG-13">
          <mxGeometry relative="1" as="geometry" />
        </mxCell>
        <mxCell id="v_UblvZ5VtNm7Xd-BXZG-12" value="&lt;font style=&quot;font-size: 12px;&quot;&gt;2.处理数据&lt;br&gt;1%&lt;/font&gt;" style="rounded=1;whiteSpace=wrap;html=1;shadow=0;glass=0;fillColor=#ffcc99;strokeColor=#36393d;" vertex="1" parent="1">
          <mxGeometry x="500" y="90" width="80" height="60" as="geometry" />
        </mxCell>
        <mxCell id="v_UblvZ5VtNm7Xd-BXZG-13" value="&lt;font style=&quot;font-size: 12px;&quot;&gt;3.导出数据&lt;br&gt;4%&lt;/font&gt;" style="rounded=1;whiteSpace=wrap;html=1;shadow=0;glass=0;fillColor=#ffcc99;strokeColor=#36393d;" vertex="1" parent="1">
          <mxGeometry x="630" y="90" width="80" height="60" as="geometry" />
        </mxCell>
        <mxCell id="v_UblvZ5VtNm7Xd-BXZG-16" style="edgeStyle=orthogonalEdgeStyle;rounded=0;orthogonalLoop=1;jettySize=auto;html=1;exitX=1;exitY=0.5;exitDx=0;exitDy=0;entryX=0;entryY=0.5;entryDx=0;entryDy=0;" edge="1" parent="1" source="v_UblvZ5VtNm7Xd-BXZG-17" target="v_UblvZ5VtNm7Xd-BXZG-22">
          <mxGeometry relative="1" as="geometry" />
        </mxCell>
        <mxCell id="v_UblvZ5VtNm7Xd-BXZG-17" value="1.2.查还款计划&lt;br&gt;10%" style="rounded=1;whiteSpace=wrap;html=1;shadow=0;glass=0;fillColor=#dae8fc;strokeColor=#6c8ebf;" vertex="1" parent="1">
          <mxGeometry x="290" y="240" width="80" height="60" as="geometry" />
        </mxCell>
        <mxCell id="v_UblvZ5VtNm7Xd-BXZG-18" style="edgeStyle=orthogonalEdgeStyle;rounded=0;orthogonalLoop=1;jettySize=auto;html=1;exitX=0.5;exitY=1;exitDx=0;exitDy=0;entryX=0.5;entryY=0;entryDx=0;entryDy=0;curved=1;" edge="1" parent="1" source="v_UblvZ5VtNm7Xd-BXZG-22" target="v_UblvZ5VtNm7Xd-BXZG-31">
          <mxGeometry relative="1" as="geometry" />
        </mxCell>
        <mxCell id="v_UblvZ5VtNm7Xd-BXZG-20" style="edgeStyle=orthogonalEdgeStyle;orthogonalLoop=1;jettySize=auto;html=1;exitX=0.5;exitY=1;exitDx=0;exitDy=0;curved=1;" edge="1" parent="1" source="v_UblvZ5VtNm7Xd-BXZG-22" target="v_UblvZ5VtNm7Xd-BXZG-33">
          <mxGeometry relative="1" as="geometry" />
        </mxCell>
        <mxCell id="v_UblvZ5VtNm7Xd-BXZG-40" style="edgeStyle=orthogonalEdgeStyle;rounded=0;orthogonalLoop=1;jettySize=auto;html=1;exitX=1;exitY=0.5;exitDx=0;exitDy=0;entryX=0;entryY=0.5;entryDx=0;entryDy=0;" edge="1" parent="1" source="v_UblvZ5VtNm7Xd-BXZG-22" target="v_UblvZ5VtNm7Xd-BXZG-38">
          <mxGeometry relative="1" as="geometry" />
        </mxCell>
        <mxCell id="v_UblvZ5VtNm7Xd-BXZG-22" value="1.3.并行执行" style="rounded=1;whiteSpace=wrap;html=1;shadow=0;glass=0;fillColor=#dae8fc;strokeColor=#6c8ebf;" vertex="1" parent="1">
          <mxGeometry x="410" y="240" width="245" height="60" as="geometry" />
        </mxCell>
        <mxCell id="v_UblvZ5VtNm7Xd-BXZG-39" style="edgeStyle=orthogonalEdgeStyle;rounded=0;orthogonalLoop=1;jettySize=auto;html=1;exitX=1;exitY=0.5;exitDx=0;exitDy=0;entryX=0;entryY=0.5;entryDx=0;entryDy=0;" edge="1" parent="1" source="v_UblvZ5VtNm7Xd-BXZG-31" target="v_UblvZ5VtNm7Xd-BXZG-33">
          <mxGeometry relative="1" as="geometry" />
        </mxCell>
        <mxCell id="v_UblvZ5VtNm7Xd-BXZG-31" value="1.3.1并行执行" style="rounded=1;whiteSpace=wrap;html=1;shadow=0;glass=0;fillColor=#d5e8d4;strokeColor=#82b366;" vertex="1" parent="1">
          <mxGeometry x="320" y="360" width="220" height="50" as="geometry" />
        </mxCell>
        <mxCell id="v_UblvZ5VtNm7Xd-BXZG-33" value="&lt;font style=&quot;font-size: 12px;&quot;&gt;1.3.2处理数据&lt;br&gt;20%&lt;br&gt;&lt;/font&gt;" style="rounded=1;whiteSpace=wrap;html=1;shadow=0;glass=0;fillColor=#d5e8d4;strokeColor=#82b366;" vertex="1" parent="1">
          <mxGeometry x="600" y="360" width="80" height="50" as="geometry" />
        </mxCell>
        <mxCell id="v_UblvZ5VtNm7Xd-BXZG-36" style="edgeStyle=orthogonalEdgeStyle;rounded=0;orthogonalLoop=1;jettySize=auto;html=1;exitX=1;exitY=0.5;exitDx=0;exitDy=0;entryX=0;entryY=0.5;entryDx=0;entryDy=0;" edge="1" parent="1" source="v_UblvZ5VtNm7Xd-BXZG-15" target="v_UblvZ5VtNm7Xd-BXZG-17">
          <mxGeometry relative="1" as="geometry" />
        </mxCell>
        <mxCell id="v_UblvZ5VtNm7Xd-BXZG-15" value="1.1.取订单号分组&lt;br&gt;7%" style="rounded=1;whiteSpace=wrap;html=1;shadow=0;glass=0;fillColor=#dae8fc;strokeColor=#6c8ebf;" vertex="1" parent="1">
          <mxGeometry x="170" y="240" width="80" height="60" as="geometry" />
        </mxCell>
        <mxCell id="v_UblvZ5VtNm7Xd-BXZG-38" value="1.4.处理数据&lt;br&gt;1%" style="rounded=1;whiteSpace=wrap;html=1;shadow=0;glass=0;fillColor=#dae8fc;strokeColor=#6c8ebf;" vertex="1" parent="1">
          <mxGeometry x="700" y="240" width="80" height="60" as="geometry" />
        </mxCell>
      </root>
    </mxGraphModel>
  </diagram>
</mxfile>
